<svg xmlns="http://www.w3.org/2000/svg" xmlns:xlink="http://www.w3.org/1999/xlink"><symbol id="sprite-classmates" fill="none" viewBox="0 0 10 17"><path fill="#030A1A" d="M4.68 2.89c.9 0 1.63.75 1.63 1.68s-.73 1.68-1.63 1.68-1.63-.75-1.63-1.68.73-1.68 1.63-1.68m0 5.74a4 4 0 0 0 3.94-4.06 4 4 0 0 0-3.94-4.06 4 4 0 0 0-3.93 4.06 4 4 0 0 0 3.93 4.06m1.6 3.31a7 7 0 0 0 2.28-.97c.53-.35.7-1.09.36-1.64a1.13 1.13 0 0 0-1.6-.38 4.9 4.9 0 0 1-5.29 0 1.13 1.13 0 0 0-1.59.38 1.2 1.2 0 0 0 .37 1.64q1.07.69 2.28.97l-2.2 2.27a1.2 1.2 0 0 0 0 1.68 1.14 1.14 0 0 0 1.63 0l2.16-2.23 2.16 2.23a1.1 1.1 0 0 0 1.63 0 1.2 1.2 0 0 0 0-1.68z"/></symbol><use xlink:href="#sprite-classmates" width="10" height="17"/><view id="sprite-classmates-view" viewBox="0 0 10 17"/><symbol id="sprite-logo" fill="none" viewBox="0 0 130 26"><path fill="#fff" d="M112.98.37h3.61l4.18 17.3 4.16-17.3h3.19l-5.82 25.28h-3.08zm-1.46 0h3.44l.54 16.67v8.61h-3.98zm15.02 0h3.46v25.28h-3.96v-8.61zm-27.61 0 3.12 11.39 3.1-11.4h4.47l-5.5 16.1v9.2h-4.15v-9.2l-5.51-16.1zm-5 12v10.42q-.43.57-1.27 1.33-.83.75-2.18 1.32-1.34.56-3.26.56-1.7 0-3.1-.66-1.37-.66-2.37-2-.98-1.35-1.5-3.37t-.52-4.8v-4.31q0-2.75.5-4.78.5-2.05 1.45-3.4t2.28-2.02 3-.66q2.31 0 3.79.96 1.49.95 2.24 2.83.78 1.87.93 4.6h-3.97q-.1-1.6-.44-2.5-.32-.9-.91-1.29-.6-.4-1.53-.4-.82 0-1.42.37-.6.34-1.02 1.14t-.6 2.05-.2 3.06v4.34q0 1.8.23 3.06t.66 2.07q.45.8 1.12 1.16.7.35 1.62.35.74 0 1.2-.2t.7-.4l.47-.34v-4.66h-2.93v-3.83zm-30.82-12h6.56q2.05 0 3.5.86 1.45.87 2.22 2.57t.77 4.2q0 2.06-.45 3.51t-1.27 2.42a6 6 0 0 1-1.99 1.53l-1.25.92h-5.32l-.02-4.22h3.7q.84 0 1.4-.45.55-.47.82-1.3.28-.86.28-1.99 0-1.2-.25-2.05-.24-.86-.77-1.32-.52-.47-1.37-.46h-2.44v21.06h-4.12zm9.29 25.28-3.75-11.27 4.31-.02 3.84 11.05v.24zm-12.71-4.2v4.2h-8.9v-4.2zm-7.62-21.09v25.3h-4.12v-25.3zm6.42 10.25v4.08h-7.7v-4.08zm1.17-10.24v4.22h-8.87v-4.22zm-20.09 16.37h-4.19v-4.22h4.2q.86 0 1.41-.48.56-.49.82-1.34a7 7 0 0 0 .25-1.95q0-1.09-.27-2.03-.25-.95-.8-1.54-.53-.6-1.42-.6h-2.86v21.07h-4.1v-25.28h6.96q2.07 0 3.56 1.07 1.49 1.08 2.27 2.97.8 1.88.8 4.3 0 2.46-.8 4.26-.78 1.8-2.27 2.78t-3.56 1m-14.22-16.39h4.1v17.37q0 2.92-.87 4.76-.85 1.82-2.37 2.68-1.52.83-3.47.83-1.97 0-3.5-.83-1.53-.86-2.4-2.68-.83-1.84-.83-4.76v-17.36h4.1v17.36q0 1.65.3 2.54.3.88.88 1.21t1.45.32q.87 0 1.43-.32.58-.33.87-1.21.31-.89.31-2.54zm-16.08 18.64q0-.68-.1-1.23a3 3 0 0 0-.42-1.03q-.3-.47-.9-.93-.6-.48-1.55-.98a34 34 0 0 1-2.21-1.25 11 11 0 0 1-1.93-1.56 7 7 0 0 1-1.36-2.08q-.5-1.22-.5-2.85 0-1.6.47-2.9.48-1.3 1.35-2.23a6 6 0 0 1 2.04-1.44q1.18-.5 2.63-.5 1.97 0 3.4 1 1.45 1.01 2.23 2.77.8 1.75.8 4.03h-4.1q0-1.08-.25-1.9-.24-.83-.78-1.3-.53-.47-1.37-.47-.79 0-1.31.4-.5.38-.76 1.06-.24.66-.24 1.5 0 .62.24 1.12.25.49.69.89.44.38 1.03.75.6.36 1.32.7 1.39.68 2.46 1.5a8 8 0 0 1 1.78 1.8q.72 1 1.08 2.25t.37 2.85q0 1.58-.45 2.88a6 6 0 0 1-1.28 2.22 6 6 0 0 1-2.04 1.43q-1.18.5-2.64.5-1.42 0-2.68-.49a6 6 0 0 1-2.24-1.5q-.95-1.03-1.5-2.6-.55-1.58-.55-3.73h4.12q0 1.15.18 1.96.18.8.56 1.29.38.47.93.71.56.23 1.28.23.81 0 1.3-.39.48-.38.7-1.02.2-.64.2-1.46"/></symbol><use xlink:href="#sprite-logo" width="130" height="26" y="17"/><view id="sprite-logo-view" viewBox="0 17 130 26"/><symbol id="sprite-play" fill="none" viewBox="0 0 13 15"><path fill="#fff" d="m13 7.5-12.75 7.36v-14.72z"/></symbol><use xlink:href="#sprite-play" width="13" height="15" y="43"/><view id="sprite-play-view" viewBox="0 43 13 15"/><symbol id="sprite-reddit" fill="none" viewBox="0 0 15 15"><path fill="#030A1A" d="M8.85.56c-.44 0-.86.22-1.13.55s-.42.72-.52 1.14a10 10 0 0 0-.24 2.1 7 7 0 0 0-3.33 1.02 2 2 0 0 0-1.28-.5c-.5 0-.98.23-1.33.67-.68.85-.6 2.24.18 3.06a4 4 0 0 0-.08.78c0 2.8 2.86 5.06 6.38 5.06s6.38-2.26 6.38-5.06q0-.39-.08-.78c.78-.82.86-2.21.18-3.06a1.7 1.7 0 0 0-1.33-.66 2 2 0 0 0-1.28.49 7 7 0 0 0-3.31-1.03 8 8 0 0 1 .18-1.75q.12-.46.27-.64c.1-.13.17-.18.34-.18.36 0 .4.12.63.4q.14.23.44.5c.2.17.5.32.82.32v-1.22c-.09 0-.1 0-.17-.05l-.27-.35c-.25-.32-.73-.81-1.45-.81m3.51.11c-.84 0-1.52.77-1.52 1.71 0 .95.68 1.71 1.52 1.71s1.52-.76 1.52-1.7c0-.95-.68-1.72-1.52-1.72m0 .6c.54 0 .98.5.98 1.11s-.44 1.1-.98 1.1-.98-.49-.98-1.1.44-1.1.98-1.1m-4.86 4.01c3 0 5.52 1.88 5.52 4.1s-2.53 4.08-5.52 4.08-5.52-1.87-5.52-4.09 2.53-4.09 5.52-4.09m-5.13.56q.22 0 .45.1a5 5 0 0 0-1.26 1.6c-.2-.46-.15-1.05.1-1.36a1 1 0 0 1 .7-.35m10.27 0a.9.9 0 0 1 .71.35c.25.3.3.9.1 1.37a5 5 0 0 0-1.26-1.6q.23-.1.45-.11m-7.3 1.53c-.53 0-.97.5-.97 1.1s.44 1.1.98 1.1.98-.5.98-1.1-.44-1.1-.98-1.1m4.32 0c-.54 0-.98.5-.98 1.1s.44 1.1.98 1.1.98-.5.98-1.1-.44-1.1-.98-1.1m-4.85 3.75c.35.8 1.41 1.58 2.69 1.58s2.36-.78 2.7-1.58c-.62.45-1.6.76-2.7.76s-2.06-.31-2.69-.76"/></symbol><use xlink:href="#sprite-reddit" width="15" height="15" y="58"/><view id="sprite-reddit-view" viewBox="0 58 15 15"/><symbol id="sprite-swiper-arrow" fill="none" viewBox="0 0 18 32"><path stroke="#102654" d="m17 0-16 16 16 16"/></symbol><use xlink:href="#sprite-swiper-arrow" width="18" height="32" y="73"/><view id="sprite-swiper-arrow-view" viewBox="0 73 18 32"/><symbol id="sprite-vk" fill="none" viewBox="0 0 13 8"><path fill="#030A1A" d="M7.72 6.05c.45-.14 1.01.95 1.62 1.36.45.32.8.25.8.25l1.6-.02s.84-.05.45-.72c-.04-.06-.24-.5-1.2-1.4-1-.95-.87-.8.34-2.43q1.1-1.48.94-1.87c-.08-.25-.63-.18-.63-.18l-1.8.01q-.29-.01-.4.24s-.3.77-.67 1.43c-.8 1.38-1.13 1.45-1.26 1.37-.31-.2-.23-.8-.23-1.24 0-1.34.2-1.9-.4-2.04a3 3 0 0 0-.84-.09c-.65 0-1.2 0-1.5.16-.2.1-.37.33-.27.34.12.02.39.07.53.27.19.26.18.83.18.83s.11 1.58-.25 1.77c-.24.14-.58-.14-1.3-1.4-.36-.64-.64-1.35-.64-1.35s-.05-.13-.15-.2a1 1 0 0 0-.28-.11h-1.72s-.26.02-.35.13 0 .31 0 .31 1.34 3.19 2.87 4.79c1.4 1.47 2.98 1.38 2.98 1.38h.72s.22-.03.33-.15c.1-.1.1-.32.1-.32s-.02-.98.43-1.12"/></symbol><use xlink:href="#sprite-vk" width="13" height="8" y="105"/><view id="sprite-vk-view" viewBox="0 105 13 8"/></svg>